<?xml version="1.0" encoding="utf-8"?>
<svg viewBox="0 0 18 16" xmlns="http://www.w3.org/2000/svg" xmlns:xlink="http://www.w3.org/1999/xlink" version="1.1">
    <g transform="scale(1,1)">
            <path style="fill:black" d="M0 3.5A1.5 1.5 0 0 1 1.5 2h11a1.5 1.5 0 0 1 1.5 1.5V5h1.02a1.5 1.5 0 0 1 1.17.563l1.481 1.85a1.5 1.5 0 0 1 .329.938V10.5a1.5 1.5 0 0 1-1.5 1.5H16a2 2 0 1 1-4 0H5a2 2 0 1 1-3.998-.085A1.5 1.5 0 0 1 0 10.5v-7z"></path>
            <path style="fill:white" d="M0 3.5A1.5 1.5 0 0 1 1.5 2h11a1.5 1.5 0 0 1 1.5 1.5V5h1.02a1.5 1.5 0 0 1 1.17.563l1.481 1.85a1.5 1.5 0 0 1 .329.938V10.5a1.5 1.5 0 0 1 -1.5 1.5H16a2 2 0 1 1-4 0H5a2 2 0 1 1-3.998-.085A1.5 1.5 0 0 1 0 10.5v-7z
                m1.294 7.456A1.999 1.999 0 0 1 4.732 11h7.536a2.01 2.01 0 0 1 .732-.732V3.5a.5.5 0 0 0-.5-.5h-11a.5.5 0 0 0-.5.5v7a.5.5 0 0 0 .294.456z
                M14 10a2 2 0 0 1 1.732 1h.768a.5.5 0 0 0 .5-.5V8.35a.5.5 0 0 0-.11-.312l-1.48-1.85A.5.5 0 0 0 15.02 6H14v4z
                m-11 1a1 1 0 1 0 0 2 1 1 0 0 0 0-2z
                m11 0a1 1 0 1 0 0 2 1 1 0 0 0 0-2z"></path>
            <path style="stroke-width: 1.25; stroke: white; stroke-endcap: round" d="M5 6.75h5zM7.5 4.25v5"></path>
    </g>
</svg>
